<svg xmlns="http://www.w3.org/2000/svg" width="11" height="11" viewBox="0 0 11 11"><defs><style>.cls-1{fill:#aaa;fill-rule:evenodd}</style></defs><path id="Ellipse_1_copy_3" data-name="Ellipse 1 copy 3" class="cls-1" d="M391.5 163a1.5 1.5 0 1 1-1.5 1.5 1.5 1.5 0 0 1 1.5-1.5zm-4-2a1.5 1.5 0 1 1-1.5 1.5 1.5 1.5 0 0 1 1.5-1.5zm0 4a1.5 1.5 0 1 1-1.5 1.5 1.5 1.5 0 0 1 1.5-1.5zm-4-2a1.5 1.5 0 1 1-1.5 1.5 1.5 1.5 0 0 1 1.5-1.5zm0-4a1.5 1.5 0 1 1-1.5 1.5 1.5 1.5 0 0 1 1.5-1.5zm0 8a1.5 1.5 0 1 1-1.5 1.5 1.5 1.5 0 0 1 1.5-1.5z" transform="translate(-382 -159)"/></svg>