<svg xmlns="http://www.w3.org/2000/svg" width="62.44" height="64" viewBox="0 0 62.44 64"><defs><style>.cls-1{fill-rule:evenodd;opacity:.1}</style></defs><path id="Forma_1" data-name="Forma 1" class="cls-1" d="M1582.2 514.67h-8.62a1.356 1.356 0 0 0 0 2.712h8.62a10.3 10.3 0 0 1 10.29 10.292V543.3h-33.45v-15.63a12.989 12.989 0 0 0-5.07-10.292h9.16a1.356 1.356 0 0 0 0-2.712h-17.33a13.024 13.024 0 0 0-13.01 13v16.994a1.359 1.359 0 0 0 1.36 1.356h31.73v15.767h-3.76v-11.2a1.355 1.355 0 1 0-2.71 0v12.555a1.359 1.359 0 0 0 1.36 1.356h6.46a1.359 1.359 0 0 0 1.36-1.356v-17.122h25.26a1.359 1.359 0 0 0 1.36-1.356v-16.986a13.024 13.024 0 0 0-13.01-13.004zm-46.69 13a10.3 10.3 0 0 1 10.29-10.292h.23a10.307 10.307 0 0 1 10.3 10.292v15.63h-3.2v-14.765a1.36 1.36 0 0 0-2.72 0V543.3h-3.14v-14.765a1.355 1.355 0 1 0-2.71 0V543.3h-3.14v-14.765a1.355 1.355 0 1 0-2.71 0V543.3h-3.2v-15.63zm26.26.71a5.125 5.125 0 1 0 6.68-4.883v-20.28h8.85v3.377h-6.75a1.357 1.357 0 0 0 0 2.713h8.1a1.359 1.359 0 0 0 1.36-1.357v-6.09a1.359 1.359 0 0 0-1.36-1.356h-11.56a1.359 1.359 0 0 0-1.36 1.356v21.54a5.136 5.136 0 0 0-3.96 4.984zm7.54 0a2.415 2.415 0 1 1-2.41-2.411 2.413 2.413 0 0 1 2.41 2.415z" transform="translate(-1532.78 -500.5)"/></svg>